<?xml version="1.0" encoding="utf-8"?>
<!-- Generator: Adobe Illustrator 27.5.0, SVG Export Plug-In . SVG Version: 6.00 Build 0)  -->
<svg version="1.1" id="Layer_1" xmlns="http://www.w3.org/2000/svg" xmlns:xlink="http://www.w3.org/1999/xlink" x="0px" y="0px"
	 viewBox="0 0 252 288" style="enable-background:new 0 0 252 288;" xml:space="preserve">
<style type="text/css">
	.st0{fill:#FBB040;}
	.st1{fill:#19181A;}
	.st2{fill:#FFFFFF;}
	.st3{fill:#00AEEF;}
	.st4{fill:#1C75BC;}
	.st5{fill:#A06EA0;}
	.st6{fill:#D4BBDA;}
	.st7{fill:#FFCE07;}
	.st8{fill:#00A651;}
	.st9{opacity:0.52;fill:#3C81C3;enable-background:new    ;}
	.st10{fill:#D3D3D3;}
</style>
<g id="Layer_4">
	<g>
		<g id="XMLID_00000151521468256819389150000011152121925732896191_">
			<g>
				<polygon class="st0" points="134.54,37.71 140.5,65.94 111.5,65.94 117.46,37.71 				"/>
				<path class="st1" d="M141.24,33.39l8.44,40h-47.36l8.44-40c0.38-1.83,1.99-3.13,3.86-3.13h22.76
					C139.25,30.26,140.86,31.56,141.24,33.39z M140.5,65.94l-5.96-28.23h-17.08l-5.96,28.23H140.5z"/>
			</g>
		</g>
		<g>
			<rect x="12.48" y="123.75" class="st2" width="227.05" height="64.8"/>
			<path d="M235.1,128.17v55.95H16.9v-55.95L235.1,128.17 M239.73,119.33H12.27c-2.33,0-4.22,1.89-4.22,4.22v65.21
				c0,2.33,1.89,4.22,4.22,4.22h227.46c2.33,0,4.22-1.89,4.22-4.22v-65.21C243.95,121.22,242.06,119.33,239.73,119.33L239.73,119.33
				z"/>
		</g>
		<g>
			<rect x="33.46" y="107.61" class="st2" width="185.09" height="94.43"/>
			<path d="M214.12,112.04v85.58H37.88v-85.58L214.12,112.04 M219.63,103.19H32.37c-1.85,0-3.34,1.5-3.34,3.34v96.59
				c0,1.84,1.5,3.34,3.34,3.34h187.25c1.85,0,3.34-1.5,3.34-3.34v-96.59C222.97,104.69,221.47,103.19,219.63,103.19L219.63,103.19z"
				/>
		</g>
		<g>
			<path class="st2" d="M66.71,234.48c-8.71,0-15.79-7.08-15.79-15.79V97.76c0-22.81,26.67-35.37,75.09-35.37
				c29.01,0,50.03,4.19,62.48,12.46c8.36,5.55,12.6,12.95,12.6,21.97v121.86c0,8.71-7.08,15.79-15.79,15.79H66.71V234.48z"/>
			<path d="M126,67.52c15.13,0,28.15,1.18,38.69,3.52c8.74,1.94,15.8,4.66,20.96,8.09c6.94,4.61,10.31,10.4,10.31,17.71V218.7
				c0,5.88-4.79,10.67-10.67,10.67H66.71c-5.88,0-10.67-4.78-10.67-10.67V97.76c0-7.48,3.41-13.45,10.43-18.25
				c5.18-3.54,12.22-6.35,20.93-8.35C97.93,68.74,110.92,67.52,126,67.52 M126,57.27c-67.24,0-80.21,23.27-80.21,40.49v120.93
				c0,11.55,9.36,20.91,20.91,20.91h118.58c11.55,0,20.91-9.36,20.91-20.91V96.83C206.2,79.61,193.25,57.27,126,57.27L126,57.27z"/>
		</g>
		<g>
			<path class="st3" d="M187.58,109.76v108.93c0,7.58-4.04,14.22-10.08,17.88h-103c-6.04-3.66-10.08-10.3-10.08-17.88V110.02
				c19.75-5.26,40.54-7.91,62.05-7.91C147.63,102.1,168.11,104.67,187.58,109.76z"/>
			<path d="M126.48,105.13c25.79,0,50.55,3.87,73.67,11.5v102.06c0,8.19-6.67,14.86-14.86,14.86H66.71
				c-8.19,0-14.86-6.66-14.86-14.86V116.95C75.23,109.11,100.32,105.13,126.48,105.13 M126.48,99.08c-29,0-56.41,4.88-80.68,13.56
				v106.05c0,11.55,9.36,20.91,20.91,20.91h118.58c11.55,0,20.91-9.36,20.91-20.91V112.3C182.17,103.84,155.1,99.08,126.48,99.08
				L126.48,99.08z"/>
		</g>
		<g>
			<path class="st4" d="M203.18,114.46V218.7c0,9.86-8.03,17.88-17.89,17.88h-7.79c6.04-3.66,10.08-10.3,10.08-17.88V109.76
				C192.85,111.14,198.06,112.71,203.18,114.46z"/>
			<path class="st5" d="M206.2,96.83v121.86c0,11.55-9.36,20.91-20.91,20.91h-18.63c3.97,0,7.68-1.1,10.83-3.03h7.79
				c9.86,0,17.89-8.02,17.89-17.88V114.46c-5.12-1.75-10.33-3.31-15.6-4.69V96.84c0-15.49-10.49-35.13-61.57-38.91
				c2.94-0.21,6.01-0.38,9.21-0.49h0.01C194.44,59.39,206.2,80.43,206.2,96.83z"/>
			<path class="st6" d="M135.22,57.43c-3.21,0.11-6.28,0.27-9.21,0.49c-2.94-0.21-6.01-0.38-9.22-0.49c0.36-0.01,0.73-0.02,1.1-0.04
				c0.37-0.01,0.75-0.02,1.13-0.03s0.76-0.02,1.14-0.03c0.48-0.01,0.97-0.02,1.46-0.03c0.66-0.01,1.32-0.02,1.99-0.02
				c0.79,0,1.59-0.01,2.4-0.01s1.62,0,2.41,0.01c0.67,0,1.34,0.01,1.99,0.02c0.49,0.01,0.97,0.02,1.46,0.03
				c0.38,0.01,0.76,0.02,1.14,0.03s0.75,0.02,1.13,0.03C134.49,57.4,134.85,57.41,135.22,57.43z"/>
		</g>
		<g>
			<path class="st7" d="M117.88,57.39c-0.37,0.01-0.73,0.03-1.1,0.04h-0.01C117.14,57.41,117.51,57.4,117.88,57.39z"/>
			<path class="st0" d="M74.5,236.58c3.16,1.92,6.87,3.03,10.83,3.03H66.7c-11.55,0-20.91-9.36-20.91-20.91V96.83
				c0-16.4,11.76-37.44,70.97-39.4h0.01c3.21,0.11,6.28,0.27,9.22,0.49C74.9,61.71,64.41,81.33,64.41,96.83v13.19
				c-5.28,1.4-10.48,2.99-15.6,4.76v103.91c0,9.86,8.02,17.88,17.89,17.88h7.8V236.58z"/>
			<path class="st8" d="M74.5,236.58h-7.79c-9.87,0-17.89-8.02-17.89-17.88V114.78c5.12-1.77,10.32-3.36,15.6-4.76v108.67
				C64.42,226.27,68.46,232.91,74.5,236.58z"/>
			<path class="st7" d="M135.22,57.43c-3.21,0.11-6.28,0.27-9.21,0.49c-2.94-0.21-6.01-0.38-9.22-0.49c0.36-0.01,0.73-0.02,1.1-0.04
				c0.37-0.01,0.75-0.02,1.13-0.03s0.76-0.02,1.14-0.03c0.48-0.01,0.97-0.02,1.46-0.03c0.66-0.01,1.32-0.02,1.99-0.02
				c0.79,0,1.59-0.01,2.4-0.01s1.62,0,2.41,0.01c0.67,0,1.34,0.01,1.99,0.02c0.49,0.01,0.97,0.02,1.46,0.03
				c0.38,0.01,0.76,0.02,1.14,0.03s0.75,0.02,1.13,0.03C134.49,57.4,134.85,57.41,135.22,57.43z"/>
		</g>
		<g>
			<path d="M126.48,105.13c25.79,0,50.55,3.87,73.67,11.5v102.06c0,8.19-6.67,14.86-14.86,14.86H66.71
				c-8.19,0-14.86-6.66-14.86-14.86V116.95C75.23,109.11,100.32,105.13,126.48,105.13 M126.48,99.08c-29,0-56.41,4.88-80.68,13.56
				v106.05c0,11.55,9.36,20.91,20.91,20.91h118.58c11.55,0,20.91-9.36,20.91-20.91V112.3C182.17,103.84,155.1,99.08,126.48,99.08
				L126.48,99.08z"/>
		</g>
		<path d="M126,67.52c15.13,0,28.15,1.18,38.69,3.52c8.74,1.94,15.8,4.66,20.96,8.09c6.94,4.61,10.31,10.4,10.31,17.71V218.7
			c0,5.88-4.79,10.67-10.67,10.67H66.71c-5.88,0-10.67-4.78-10.67-10.67V97.76c0-7.48,3.41-13.45,10.43-18.25
			c5.18-3.54,12.22-6.35,20.93-8.35C97.93,68.74,110.92,67.52,126,67.52 M126,57.27c-67.24,0-80.21,23.27-80.21,40.49v120.93
			c0,11.55,9.36,20.91,20.91,20.91h118.58c11.55,0,20.91-9.36,20.91-20.91V96.83C206.2,79.61,193.25,57.27,126,57.27L126,57.27z"/>
		<g>
			<path class="st2" d="M84.79,161.13c-7.63,0-13.84-6.21-13.84-13.84s6.21-13.84,13.84-13.84s13.84,6.21,13.84,13.84
				S92.42,161.13,84.79,161.13z"/>
			<path d="M84.79,136.47c5.96,0,10.82,4.85,10.82,10.82c0,5.96-4.85,10.82-10.82,10.82c-5.96,0-10.82-4.85-10.82-10.82
				C73.97,141.33,78.83,136.47,84.79,136.47 M84.79,130.42c-9.32,0-16.87,7.55-16.87,16.87c0,9.32,7.55,16.87,16.87,16.87
				s16.87-7.55,16.87-16.87S94.11,130.42,84.79,130.42L84.79,130.42z"/>
		</g>
		<g>
			<path class="st0" d="M84.4,130.42c-1.61,0-3.16,0.23-4.63,0.65c7.06,2.01,12.24,8.51,12.24,16.22s-5.17,14.2-12.24,16.22
				c1.47,0.42,3.02,0.65,4.63,0.65c9.32,0,16.87-7.55,16.87-16.87S93.71,130.42,84.4,130.42z"/>
		</g>
		<g>
			<path d="M84.79,136.47c5.96,0,10.82,4.85,10.82,10.82c0,5.96-4.85,10.82-10.82,10.82c-5.96,0-10.82-4.85-10.82-10.82
				C73.97,141.33,78.83,136.47,84.79,136.47 M84.79,130.42c-9.32,0-16.87,7.55-16.87,16.87c0,9.32,7.55,16.87,16.87,16.87
				s16.87-7.55,16.87-16.87S94.11,130.42,84.79,130.42L84.79,130.42z"/>
		</g>
		<g>
			<path class="st2" d="M166.55,161.13c-7.63,0-13.84-6.21-13.84-13.84s6.21-13.84,13.84-13.84s13.84,6.21,13.84,13.84
				S174.18,161.13,166.55,161.13z"/>
			<path d="M166.55,136.47c5.96,0,10.82,4.85,10.82,10.82c0,5.96-4.85,10.82-10.82,10.82s-10.82-4.85-10.82-10.82
				C155.74,141.33,160.59,136.47,166.55,136.47 M166.55,130.42c-9.32,0-16.87,7.55-16.87,16.87c0,9.32,7.55,16.87,16.87,16.87
				s16.87-7.55,16.87-16.87S175.87,130.42,166.55,130.42L166.55,130.42z"/>
		</g>
		<g>
			<path class="st6" d="M166.55,130.42c-1.61,0-3.16,0.23-4.63,0.65c7.06,2.01,12.24,8.51,12.24,16.22s-5.17,14.2-12.24,16.22
				c1.47,0.42,3.02,0.65,4.63,0.65c9.32,0,16.87-7.55,16.87-16.87S175.87,130.42,166.55,130.42z"/>
		</g>
		<path d="M166.55,136.47c5.96,0,10.82,4.85,10.82,10.82c0,5.96-4.85,10.82-10.82,10.82s-10.82-4.85-10.82-10.82
			C155.74,141.33,160.59,136.47,166.55,136.47 M166.55,130.42c-9.32,0-16.87,7.55-16.87,16.87c0,9.32,7.55,16.87,16.87,16.87
			s16.87-7.55,16.87-16.87S175.87,130.42,166.55,130.42L166.55,130.42z"/>
		<path d="M72.08,176.37c-2.54,0-4.37,2.45-3.64,4.89c6.26,20.88,9.28,35.62,57.47,35.62s51.21-14.74,57.47-35.62
			c0.73-2.44-1.09-4.89-3.64-4.89H72.08z"/>
		<path class="st2" d="M179.74,176.37H72.08c-2.54,0-4.37,2.45-3.64,4.89c0.74,2.45,1.43,4.82,2.15,7.09h110.64
			c0.72-2.27,1.42-4.64,2.15-7.09C184.11,178.83,182.29,176.37,179.74,176.37z"/>
		<path d="M177.97,181.49c0,0.01-0.01,0.02-0.01,0.03c-2.81,9.44-5.03,16.89-11.38,21.86c-7.3,5.71-20.22,8.38-40.66,8.38
			c-20.44,0-33.36-2.66-40.66-8.38c-6.35-4.97-8.57-12.43-11.38-21.86c0-0.01-0.01-0.02-0.01-0.03H177.97 M179.74,176.37H72.08
			c-2.54,0-4.37,2.45-3.64,4.89c6.26,20.88,9.28,35.62,57.47,35.62s51.21-14.74,57.47-35.62
			C184.11,178.83,182.29,176.37,179.74,176.37L179.74,176.37z"/>
		<ellipse class="st9" cx="126.14" cy="269.42" rx="89.85" ry="9.45"/>
		<g>
			<g id="XMLID_00000036211074228322967390000011085692500495583656_">
				<g>
					<polygon class="st0" points="61.16,15.1 66.09,25.67 65.41,25.99 62.89,27.17 61.88,27.64 61.2,27.95 56.27,17.38 					"/>
					<path d="M75.15,46.86c0.45,0.98,0.03,2.14-0.95,2.59c-0.26,0.13-0.54,0.19-0.82,0.19c-0.73,0-1.44-0.42-1.77-1.13l-7.57-16.23
						l-3.01,1.4c-0.35,0.17-0.71,0.24-1.08,0.24c-0.96,0-1.88-0.54-2.31-1.47l-7.1-15.24c-0.6-1.27-0.05-2.79,1.23-3.38l9.56-4.46
						c0.35-0.16,0.71-0.24,1.08-0.24c0.96,0,1.88,0.54,2.31,1.47l7.1,15.24c0.6,1.27,0.05,2.79-1.23,3.39l-3.01,1.4L75.15,46.86z
						 M66.09,25.67L61.16,15.1l-4.89,2.28l4.93,10.57l0.68-0.31l1.01-0.47l2.52-1.18L66.09,25.67z"/>
				</g>
			</g>
			<g id="XMLID_00000032618772644505162200000007316007363389083565_">
				<g>
					<polygon class="st0" points="195.73,17.38 190.8,27.95 190.12,27.64 189.11,27.17 186.59,25.99 185.91,25.67 190.84,15.1 					
						"/>
					<path d="M200.23,13.83c1.28,0.59,1.83,2.11,1.23,3.38l-7.1,15.24c-0.43,0.93-1.35,1.47-2.31,1.47c-0.37,0-0.73-0.07-1.08-0.24
						l-3.01-1.4l-7.57,16.23c-0.33,0.71-1.04,1.13-1.77,1.13c-0.28,0-0.56-0.06-0.82-0.19c-0.98-0.45-1.4-1.61-0.95-2.59l7.57-16.23
						l-3.01-1.4c-1.28-0.6-1.83-2.12-1.23-3.39l7.1-15.24c0.43-0.93,1.35-1.47,2.31-1.47c0.37,0,0.73,0.08,1.08,0.24L200.23,13.83z
						 M190.8,27.95l4.93-10.57l-4.89-2.28l-4.93,10.57l0.68,0.32l2.52,1.18l1.01,0.47L190.8,27.95z"/>
				</g>
			</g>
		</g>
		<rect x="231.19" y="128.08" class="st10" width="3.95" height="56.17"/>
		<rect x="17.02" y="128.08" class="st10" width="3.95" height="56.17"/>
		<rect x="210.31" y="111.96" class="st10" width="3.95" height="85.63"/>
		<rect x="38.07" y="111.96" class="st10" width="3.95" height="85.63"/>
	</g>
</g>
</svg>
